<?xml version="1.0" standalone="no"?>
<!DOCTYPE svg PUBLIC "-//W3C//DTD SVG 20010904//EN"
 "http://www.w3.org/TR/2001/REC-SVG-20010904/DTD/svg10.dtd">
<svg version="1.0" xmlns="http://www.w3.org/2000/svg"
 width="1280.000000pt" height="911.000000pt" viewBox="0 0 1280.000000 911.000000"
 preserveAspectRatio="xMidYMid meet">
<metadata>
Created by potrace 1.15, written by Peter Selinger 2001-2017
</metadata>
<g transform="translate(0.000000,911.000000) scale(0.100000,-0.100000)"
fill="#ffe23e" stroke="none">
<path d="M7479 8610 c-137 -72 -355 -486 -416 -790 -14 -69 -33 -138 -43 -155
-11 -18 -26 -87 -39 -175 -19 -130 -51 -400 -51 -428 0 -6 -46 -46 -103 -90
-268 -207 -436 -461 -527 -797 l-27 -100 -271 -5 c-239 -4 -273 -7 -288 -22
-17 -16 -17 -18 1 -38 16 -18 30 -20 144 -20 267 0 346 -54 373 -254 12 -92 6
-144 -21 -178 l-19 -23 -372 -5 -371 -5 -40 -42 c-21 -23 -39 -51 -39 -61 0
-17 5 -18 53 -11 28 4 81 15 116 24 53 14 90 16 205 10 78 -3 166 -10 196 -15
30 -5 86 -11 125 -15 66 -5 72 -8 140 -64 45 -38 74 -70 82 -92 15 -44 17
-199 2 -199 -6 0 -36 7 -67 16 -76 22 -150 14 -292 -33 l-115 -38 250 -5 c163
-3 257 -9 270 -17 34 -19 72 -65 99 -120 24 -49 25 -53 8 -61 -36 -19 -122
-32 -285 -42 -500 -31 -952 -172 -1327 -414 -180 -116 -391 -298 -515 -445
-67 -79 -77 -82 -161 -55 -41 14 -70 38 -179 149 -76 78 -145 158 -166 194
-78 132 -130 348 -173 711 -28 235 -68 387 -133 512 -63 121 -420 451 -656
609 -208 138 -422 228 -592 251 -96 13 -144 6 -268 -38 -77 -27 -79 -28 -165
-15 -48 8 -109 17 -137 21 -117 17 -311 -30 -538 -131 -257 -115 -453 -237
-565 -352 -107 -111 -134 -187 -113 -314 27 -153 139 -304 251 -337 92 -27
125 -22 297 50 538 224 652 263 832 285 88 10 103 9 181 -11 403 -103 729
-374 861 -716 59 -151 198 -574 248 -751 108 -384 229 -604 424 -771 99 -85
136 -98 342 -123 176 -21 269 -44 300 -75 22 -22 19 -93 -6 -133 -29 -48 -22
-77 56 -233 36 -73 69 -152 72 -174 l5 -42 -90 -70 c-50 -38 -142 -106 -204
-150 -230 -164 -323 -253 -417 -401 l-53 -83 4 -222 c5 -204 7 -228 32 -311
75 -248 240 -377 486 -377 154 -1 292 59 427 185 121 113 371 473 419 603 15
41 34 78 43 83 9 4 35 4 59 -1 l43 -9 -6 -72 c-4 -40 -18 -151 -32 -247 -57
-403 -38 -642 69 -842 95 -179 273 -284 521 -307 248 -24 429 32 508 157 42
66 59 131 66 252 7 125 1 149 -110 470 -63 182 -71 214 -72 280 0 84 21 135
66 157 13 6 85 16 159 22 74 6 236 27 360 46 358 56 485 73 647 86 172 13 193
9 242 -47 70 -79 116 -175 286 -586 73 -177 81 -192 157 -283 150 -179 356
-343 467 -371 149 -37 455 33 649 148 79 47 167 132 193 185 47 97 20 237 -73
380 -72 112 -128 175 -338 383 -178 175 -264 277 -324 381 -63 109 -87 247
-47 269 11 5 44 10 73 9 l53 -1 125 -145 c69 -80 184 -207 256 -282 121 -126
139 -141 230 -188 171 -89 338 -130 564 -140 158 -6 290 12 375 53 110 52 208
196 284 420 41 121 40 146 -9 225 -22 35 -55 90 -72 121 l-33 57 -130 46 c-71
26 -181 59 -243 75 -121 31 -219 77 -332 158 -204 146 -421 347 -459 426 l-23
46 107 222 c58 123 138 283 178 357 71 133 72 134 117 147 25 7 79 24 120 38
41 13 149 48 240 76 411 129 793 307 1045 487 37 26 76 54 87 62 17 13 34 10
149 -28 252 -83 507 -135 625 -129 l59 3 -131 43 c-72 23 -193 56 -270 72
-229 49 -344 91 -391 142 l-21 23 94 140 c51 77 117 182 145 233 l51 92 202 0
c110 0 293 -7 406 -15 113 -8 265 -15 339 -15 l134 0 -24 26 c-66 72 -172 85
-671 83 -202 0 -372 2 -377 6 -22 13 -11 157 26 339 20 100 37 183 39 184 7
10 266 41 384 47 74 3 167 12 205 20 39 7 110 19 159 25 49 6 98 15 107 21 26
13 49 50 49 76 0 22 -3 22 -62 17 -77 -7 -197 -26 -383 -59 -189 -34 -472 -46
-509 -21 -53 34 -72 88 -100 295 -26 183 -81 290 -251 486 -105 120 -193 245
-226 319 -11 26 -33 116 -49 199 -110 594 -210 884 -413 1189 -77 116 -234
291 -300 333 -27 18 -29 17 -105 -20 -148 -74 -272 -225 -419 -516 -120 -234
-190 -329 -306 -416 -34 -24 -87 -51 -124 -63 -116 -36 -323 -22 -423 28 -49
24 -58 34 -94 102 -91 175 -133 225 -423 510 -153 150 -303 290 -333 311 -30
21 -90 65 -133 99 -87 67 -115 73 -178 40z m264 -227 c51 -54 144 -152 205
-218 62 -66 133 -140 158 -165 68 -66 193 -236 225 -305 32 -69 51 -143 38
-151 -15 -9 -93 17 -142 48 -66 42 -126 112 -222 258 -116 177 -207 257 -312
275 -108 18 -214 -87 -296 -293 -29 -73 -39 -118 -57 -258 -25 -204 -41 -263
-82 -309 -38 -43 -55 -53 -113 -64 l-45 -8 0 52 c0 119 92 528 175 780 95 288
218 455 337 455 33 0 45 -9 131 -97z m2326 -58 c88 -45 204 -251 325 -575 117
-315 176 -540 176 -668 l0 -66 -73 124 c-129 221 -175 313 -212 430 -87 275
-129 356 -213 415 -36 25 -53 30 -100 29 -109 -1 -130 -20 -317 -282 -80 -113
-97 -130 -145 -154 -35 -18 -75 -28 -110 -30 l-55 -3 3 40 c7 90 107 246 258
403 119 124 385 351 412 351 13 1 36 -6 51 -14z m-1024 -896 c184 -23 325 -70
475 -159 47 -28 149 -65 370 -135 168 -53 341 -110 385 -127 191 -73 336 -168
365 -238 24 -58 -9 -82 -329 -235 -111 -53 -175 -102 -169 -132 4 -20 80 -44
218 -68 67 -12 561 -55 626 -55 8 0 23 -15 34 -32 24 -40 46 -30 -217 -98
-370 -97 -483 -134 -483 -158 0 -16 76 -81 111 -96 20 -8 94 -22 165 -31 245
-30 376 -72 423 -136 20 -27 20 -29 3 -38 -42 -22 -443 -54 -692 -55 -159 -1
-167 0 -223 26 -32 15 -103 59 -157 97 -130 92 -136 94 -203 94 -77 0 -111
-23 -115 -81 l-3 -41 73 -22 c95 -28 188 -75 188 -94 0 -16 -49 -50 -134 -95
-34 -18 -46 -31 -46 -47 0 -23 1 -23 164 -23 147 0 166 -2 188 -19 33 -26 76
-125 80 -181 l3 -45 -355 -5 c-278 -4 -361 -8 -382 -19 -16 -8 -28 -17 -28
-20 0 -3 30 -19 68 -35 60 -26 85 -30 257 -42 274 -19 430 -37 450 -54 14 -12
17 -27 13 -90 -10 -174 -98 -226 -238 -140 -53 33 -74 40 -115 40 -53 0 -243
-25 -251 -33 -2 -2 55 -34 128 -71 268 -135 278 -142 254 -178 -22 -33 -69
-66 -118 -84 -71 -25 -289 -38 -398 -25 -177 23 -260 53 -356 129 -87 69 -84
45 -84 583 l0 474 147 147 147 147 -12 82 c-28 195 -144 274 -397 273 -103 0
-130 -4 -193 -27 -142 -51 -180 -95 -167 -191 14 -105 90 -213 253 -354 l72
-63 0 -439 c0 -418 -1 -442 -20 -494 -24 -62 -79 -118 -144 -146 -54 -23 -295
-34 -432 -20 -135 15 -296 54 -371 90 -75 37 -149 114 -193 202 l-31 63 253 5
c233 5 253 6 256 23 10 52 -54 75 -257 92 -193 15 -264 36 -323 95 -45 45 -50
80 -14 104 22 14 42 14 163 5 76 -5 194 -16 263 -25 69 -8 182 -17 253 -21
124 -6 127 -6 127 15 0 25 -31 49 -80 62 -19 5 -138 25 -264 45 -354 55 -424
73 -445 113 -18 33 -13 60 17 92 21 24 41 33 90 42 89 16 172 0 281 -54 83
-42 89 -43 180 -43 77 0 96 3 104 17 23 36 -56 88 -163 108 -202 38 -293 93
-247 150 25 31 46 40 120 54 118 23 157 60 157 150 0 41 -3 46 -25 52 -68 17
-168 -23 -303 -121 -120 -86 -190 -118 -269 -123 -57 -4 -69 -1 -173 47 -67
32 -142 58 -188 67 -42 8 -117 24 -167 34 -49 11 -133 26 -185 34 -138 22
-290 77 -335 123 -17 16 -10 19 136 50 259 55 416 81 607 99 180 18 182 19
182 42 0 39 -57 86 -145 119 -44 17 -186 67 -315 113 -129 45 -241 86 -249 90
-21 11 87 28 339 50 252 23 385 47 468 85 54 25 112 70 112 87 0 11 -77 49
-217 107 -172 71 -233 100 -233 108 1 8 9 14 182 128 199 130 193 127 317 151
64 13 266 53 450 89 184 36 337 68 340 70 9 10 509 5 596 -6z m-7195 -1313
c36 -8 89 -17 118 -21 l54 -7 -5 -167 c-5 -145 -27 -344 -39 -357 -5 -4 -463
-34 -532 -34 l-39 0 6 128 c8 184 46 306 123 392 61 68 88 80 174 80 41 0 104
-6 140 -14z m877 -178 c20 -16 16 -121 -7 -186 -10 -31 -44 -111 -74 -177
l-54 -120 -77 -3 c-89 -3 -164 15 -241 59 -77 43 -77 43 -39 135 70 175 165
268 305 301 59 13 167 8 187 -9z m3759 -52 c74 -36 170 -64 559 -166 259 -67
474 -126 479 -131 13 -11 -9 -82 -40 -131 -29 -45 -89 -77 -147 -78 -21 0 -86
15 -145 34 -195 62 -319 89 -510 111 -187 21 -242 55 -278 168 -19 61 -32 237
-17 237 5 0 50 -20 99 -44z m-3220 -411 c25 -25 54 -65 64 -88 23 -50 26 -127
6 -166 -17 -32 -97 -94 -176 -137 -56 -30 -123 -88 -132 -114 -4 -10 -53 32
-162 140 -86 85 -156 157 -156 160 0 6 227 135 355 202 117 62 142 62 201 3z
m7924 42 c0 -21 24 -125 31 -133 11 -14 -6 -120 -25 -149 -39 -60 -145 -79
-391 -71 -175 6 -469 31 -485 41 -15 9 -31 124 -28 200 l3 80 240 7 c132 5
283 12 335 17 94 8 320 14 320 8z m-4653 -118 c34 -13 281 -65 568 -120 l210
-40 53 -53 c44 -43 55 -61 59 -96 l6 -43 -104 7 c-57 4 -221 20 -364 36 -143
16 -303 32 -355 36 -80 5 -100 10 -128 32 -69 53 -118 181 -87 229 13 19 24
23 65 23 27 0 61 -5 77 -11z m4342 -383 c123 -20 226 -38 229 -40 3 -3 7 -28
10 -56 7 -71 -30 -140 -132 -247 l-81 -85 -140 1 c-174 1 -254 15 -340 59 -87
44 -134 119 -135 212 0 58 13 88 73 164 l31 39 130 -6 c72 -4 232 -22 355 -41z
m-3568 -56 c86 -26 124 -60 238 -214 131 -176 178 -215 326 -272 123 -46 235
-65 434 -71 l184 -6 37 -33 c24 -22 57 -74 93 -147 87 -177 153 -225 298 -215
106 8 155 41 262 176 l89 112 46 0 c25 0 84 -7 131 -16 196 -37 295 -2 531
187 249 199 283 202 544 50 66 -39 141 -78 168 -88 26 -9 48 -20 48 -24 0 -15
-160 -158 -227 -202 -103 -68 -247 -134 -360 -164 -85 -22 -121 -26 -268 -27
-164 -2 -172 -3 -245 -33 l-75 -30 -300 -7 c-975 -23 -1670 141 -2200 519
-192 137 -461 390 -514 485 l-22 40 359 0 c330 0 365 -2 423 -20z m-3887 -94
c75 -31 122 -123 114 -224 -4 -56 -6 -59 -149 -235 l-144 -178 -56 118 c-69
143 -119 283 -119 329 0 60 78 131 199 180 65 27 108 30 155 10z m2826 -343
c48 -241 147 -622 220 -848 79 -240 221 -484 364 -624 l55 -54 11 27 c20 52
31 220 25 371 -3 83 -12 267 -20 410 -8 143 -17 311 -19 373 -5 111 -5 112 18
112 13 0 112 -43 221 -95 276 -133 396 -184 575 -244 424 -143 948 -236 1440
-258 82 -3 154 -9 159 -13 37 -22 -114 -359 -371 -830 -192 -350 -232 -400
-413 -517 -189 -123 -194 -127 -257 -249 -41 -76 -101 -164 -203 -294 -141
-180 -175 -239 -175 -300 0 -27 1 -27 53 -22 65 6 194 54 335 126 122 63 212
84 212 50 0 -34 -46 -118 -149 -278 -108 -165 -154 -254 -170 -325 l-9 -44 46
7 c58 8 166 58 293 136 242 150 387 168 497 61 72 -70 134 -214 147 -343 7
-62 6 -68 -11 -68 -10 0 -72 37 -137 81 -112 77 -121 81 -160 76 -31 -4 -50
-15 -71 -38 l-29 -33 38 -33 c21 -18 71 -48 111 -67 74 -35 104 -65 104 -101
0 -24 -27 -59 -55 -73 -33 -16 -113 -24 -134 -13 -10 6 -40 46 -65 90 -57 99
-84 121 -145 121 -89 0 -96 -50 -20 -137 28 -32 60 -70 70 -85 l20 -27 -25 -7
c-32 -8 -153 11 -230 37 -184 62 -365 225 -494 444 -55 93 -91 184 -137 340
-78 268 -119 341 -236 416 l-51 33 -67 -12 c-547 -99 -850 -134 -1171 -136
-164 -1 -215 3 -320 22 -167 31 -350 72 -613 138 -177 44 -234 54 -302 54 -65
0 -84 -3 -89 -15 -4 -12 -24 -3 -93 44 -163 110 -336 181 -446 181 l-40 0 7
-47 c8 -60 55 -154 125 -252 57 -79 101 -160 101 -186 0 -29 -13 -24 -215 91
-191 108 -307 141 -341 97 -24 -32 -15 -54 63 -146 87 -105 193 -246 245 -327
49 -78 111 -190 107 -194 -36 -32 -292 -186 -308 -186 -21 0 -22 3 -16 43 3
23 27 84 52 134 25 52 48 113 51 139 5 45 4 46 -19 39 -50 -15 -88 -51 -169
-161 -46 -63 -87 -114 -91 -114 -18 0 -99 85 -109 115 -15 44 -10 51 94 155
l86 85 0 52 c0 29 -3 53 -6 53 -3 0 -49 -30 -101 -66 -86 -60 -159 -94 -201
-94 -13 0 -14 13 -9 78 4 42 13 104 22 137 34 130 126 287 221 376 64 59 250
199 432 324 80 55 154 112 165 127 l20 27 -27 73 c-15 40 -56 173 -92 295 -93
322 -152 470 -183 458 -137 -53 -374 -44 -499 19 -43 22 -132 106 -132 126 0
4 55 61 123 127 190 185 292 225 440 173 67 -24 96 -25 140 -6 48 19 76 58
145 198 40 83 73 136 97 156 33 30 92 49 117 39 14 -5 331 -961 368 -1107 29
-116 34 -120 138 -120 l85 0 -6 98 c-3 53 -11 160 -18 237 -14 175 -6 530 14
642 9 44 25 166 37 270 20 180 34 288 46 344 9 48 100 47 136 -2 20 -27 48
-168 48 -247 0 -39 14 -89 54 -195 30 -79 120 -325 201 -547 81 -222 151 -413
157 -425 21 -42 83 -95 134 -116 105 -42 115 -17 105 276 -6 164 -12 232 -24
265 -15 40 -17 107 -17 558 0 361 3 520 11 535 20 39 52 67 75 67 19 0 24 -8
34 -57z m2756 -29 c63 -22 72 -29 85 -74 28 -94 -60 -235 -168 -266 -67 -20
-112 -7 -149 42 -29 38 -74 152 -74 188 0 25 34 60 95 99 49 31 135 36 211 11z
m-5289 -409 c58 -108 42 -194 -70 -372 -57 -91 -107 -192 -107 -218 0 -34 -25
-21 -93 47 -105 106 -166 247 -167 386 0 59 25 79 162 132 62 23 133 53 158
66 65 34 80 29 117 -41z m5383 -1402 c-7 -32 -29 -103 -48 -157 -34 -96 -35
-103 -28 -200 10 -154 10 -156 60 -156 39 0 47 5 167 125 142 141 169 154 169
83 0 -61 -21 -138 -65 -248 -34 -84 -39 -107 -43 -202 -5 -107 -4 -107 20
-119 19 -8 40 -8 82 1 67 14 120 54 270 208 127 130 160 147 281 146 108 -1
184 -27 239 -80 34 -33 76 -101 76 -124 0 -14 -80 -12 -185 5 -132 22 -155 20
-155 -9 0 -37 34 -71 128 -127 48 -29 108 -68 135 -88 l47 -35 -37 -38 c-20
-21 -44 -38 -54 -38 -9 0 -69 25 -134 56 -96 46 -124 55 -152 51 -103 -17 -81
-78 62 -178 47 -32 48 -34 25 -38 -64 -9 -358 8 -415 24 -210 59 -438 221
-686 488 -110 119 -129 144 -129 171 0 42 79 197 167 330 82 124 187 236 205
218 9 -9 8 -25 -2 -69z m-3502 -1064 c48 -10 110 -57 87 -65 -29 -11 -269
-171 -273 -182 -6 -18 77 -96 130 -123 24 -12 67 -30 97 -39 65 -21 62 -23
-81 -71 -51 -17 -118 -44 -150 -60 -52 -26 -98 -72 -98 -98 0 -18 102 -79 150
-91 25 -5 124 -14 221 -18 163 -8 181 -11 233 -36 99 -49 142 -125 153 -271 6
-84 -12 -155 -38 -155 -29 0 -70 56 -89 120 -27 92 -62 130 -124 137 l-48 6 7
-64 c3 -35 10 -89 15 -119 5 -30 10 -77 12 -105 l3 -50 -54 0 -53 0 -22 75
c-12 41 -32 94 -44 117 -22 42 -80 96 -94 87 -4 -3 -8 -72 -8 -155 l0 -149
-47 24 c-118 60 -222 157 -262 247 -19 42 -21 65 -21 422 l0 379 31 103 32
102 96 12 c53 7 112 16 131 20 49 12 53 12 108 0z"/>
<path d="M8331 7180 c-67 -14 -166 -64 -236 -120 -99 -78 -174 -206 -158 -269
11 -45 136 -271 169 -305 45 -47 105 -61 254 -61 208 1 325 52 383 164 24 48
27 66 27 146 0 143 -37 251 -117 345 -67 78 -211 123 -322 100z m184 -139
c103 -46 144 -111 145 -231 0 -189 -117 -280 -359 -280 -104 0 -108 1 -133 28
-58 63 -62 74 -55 195 10 168 42 255 109 298 29 18 45 20 138 16 81 -3 117 -9
155 -26z"/>
<path d="M8255 6882 c-47 -22 -65 -55 -65 -117 0 -35 5 -48 26 -64 23 -18 41
-21 125 -21 112 0 139 14 139 70 0 44 -28 107 -57 125 -39 26 -121 29 -168 7z"/>
<path d="M9307 7180 c-74 -13 -149 -54 -204 -113 -88 -93 -123 -190 -123 -342
0 -235 107 -370 320 -404 243 -39 408 37 461 212 17 55 20 88 18 180 -4 108
-6 117 -43 191 -48 98 -155 214 -230 250 -59 29 -130 38 -199 26z m189 -135
c97 -57 182 -241 171 -372 -7 -87 -40 -149 -101 -190 -63 -43 -113 -56 -216
-57 -102 0 -150 15 -202 62 -48 43 -72 88 -88 166 -23 114 8 203 106 297 122
116 237 148 330 94z"/>
<path d="M9317 6889 c-33 -20 -47 -64 -47 -157 0 -104 9 -121 67 -129 74 -10
193 71 193 130 0 25 -70 98 -134 141 -43 28 -52 30 -79 15z"/>
<path d="M8080 3699 c0 -17 5 -20 37 -17 27 2 39 8 41 21 3 14 -4 17 -37 17
-35 0 -41 -3 -41 -21z"/>
<path d="M7662 3630 c-11 -19 -10 -20 24 -20 36 0 37 0 19 20 -10 11 -21 20
-24 20 -3 0 -12 -9 -19 -20z"/>
<path d="M9108 3619 c-27 -17 -48 -35 -48 -40 0 -21 87 0 102 24 10 16 10 47
1 47 -5 0 -29 -14 -55 -31z"/>
<path d="M8389 3562 c-30 -25 -20 -52 20 -52 16 0 39 8 52 19 20 16 21 21 10
35 -18 21 -53 20 -82 -2z"/>
<path d="M8747 3492 c-21 -23 -13 -32 25 -32 23 0 28 4 28 25 0 30 -29 34 -53
7z"/>
<path d="M8570 3445 c-11 -13 -8 -15 20 -15 28 0 31 2 20 15 -7 8 -16 15 -20
15 -4 0 -13 -7 -20 -15z"/>
<path d="M7870 3350 c0 -44 5 -47 38 -24 29 20 28 38 -3 52 -36 16 -35 17 -35
-28z"/>
<path d="M8223 3343 c-39 -20 -40 -27 -11 -47 40 -28 58 -21 58 24 0 45 -2 45
-47 23z"/>
<path d="M8760 3230 c0 -26 34 -60 60 -60 17 0 20 7 20 40 l0 40 -40 0 c-33 0
-40 -3 -40 -20z"/>
<path d="M8447 3223 c-4 -3 -7 -15 -7 -25 0 -14 8 -18 35 -18 27 0 33 3 29 15
-4 9 -15 20 -25 25 -21 12 -24 12 -32 3z"/>
<path d="M7610 3105 c0 -33 2 -35 35 -35 33 0 35 2 35 35 0 33 -2 35 -35 35
-33 0 -35 -2 -35 -35z"/>
<path d="M8082 3073 c-13 -3 -27 -16 -33 -29 -13 -36 -11 -44 10 -44 26 0 71
38 71 61 0 19 -5 20 -48 12z"/>
<path d="M8290 2876 c0 -8 9 -24 20 -37 l19 -24 1 38 c0 30 -3 37 -20 37 -11
0 -20 -6 -20 -14z"/>
<path d="M8450 2881 c0 -5 14 -14 30 -20 27 -9 30 -8 30 10 0 14 -7 19 -30 19
-16 0 -30 -4 -30 -9z"/>
<path d="M7787 2854 c-22 -22 25 -84 63 -84 19 0 21 5 18 43 -3 40 -4 42 -38
45 -20 2 -39 0 -43 -4z"/>
<path d="M7470 2800 c0 -16 7 -20 35 -20 28 0 35 4 35 20 0 16 -7 20 -35 20
-28 0 -35 -4 -35 -20z"/>
<path d="M8120 2745 c0 -10 7 -15 18 -13 21 4 19 22 -2 26 -10 2 -16 -3 -16
-13z"/>
<path d="M8270 2615 c0 -29 7 -31 38 -9 30 21 28 29 -8 32 -26 2 -30 -1 -30
-23z"/>
<path d="M7100 2456 c0 -44 10 -50 59 -36 44 11 71 33 71 56 0 11 -15 14 -65
14 l-65 0 0 -34z"/>
<path d="M7610 2385 c0 -28 4 -35 20 -35 16 0 20 7 20 35 0 28 -4 35 -20 35
-16 0 -20 -7 -20 -35z"/>
</g>
</svg>
