<?xml version="1.0" encoding="iso-8859-1"?>
<!-- Uploaded to: SVG Repo, www.svgrepo.com, Generator: SVG Repo Mixer Tools -->
<svg fill="#000000" height="800px" width="800px" version="1.1" id="Layer_1" xmlns="http://www.w3.org/2000/svg" xmlns:xlink="http://www.w3.org/1999/xlink" 
	 viewBox="0 0 512 512" xml:space="preserve">
<g>
	<g>
		<path d="M503.467,0H8.533C3.823,0,0,3.814,0,8.533v392.533c0,2.381,0.998,4.659,2.748,6.263l110.933,102.4
			c1.57,1.459,3.644,2.27,5.786,2.27h384c4.71,0,8.533-3.814,8.533-8.533V8.533C512,3.814,508.177,0,503.467,0z M93.867,17.067
			h324.267V192l-28.442,21.333H122.308L93.867,192V17.067z M494.933,494.933h-372.13L17.067,397.338V17.067H76.8v179.2
			c0,2.68,1.263,5.214,3.413,6.827l34.133,25.6c1.476,1.109,3.277,1.707,5.12,1.707h273.067c1.843,0,3.644-0.597,5.12-1.707
			l34.133-25.6c2.15-1.604,3.413-4.139,3.413-6.827v-179.2h59.733V494.933z"/>
	</g>
</g>
<g>
	<g>
		<path d="M196.267,358.4c-4.71,0-8.533,3.814-8.533,8.533v59.733c0,4.719,3.823,8.533,8.533,8.533s8.533-3.814,8.533-8.533v-59.733
			C204.8,362.214,200.977,358.4,196.267,358.4z"/>
	</g>
</g>
<g>
	<g>
		<path d="M382.566,345.131l-17.067-25.6c-1.587-2.372-4.25-3.797-7.1-3.797H153.6c-2.85,0-5.513,1.425-7.1,3.797l-17.067,25.6
			c-0.93,1.399-1.434,3.055-1.434,4.736v93.867c0,1.681,0.503,3.337,1.434,4.736l17.067,25.6c1.587,2.372,4.25,3.797,7.1,3.797
			h204.8c2.85,0,5.513-1.425,7.1-3.797l17.067-25.6c0.93-1.399,1.434-3.055,1.434-4.736v-93.867
			C384,348.186,383.497,346.53,382.566,345.131z M366.933,441.148L353.835,460.8H158.165l-13.099-19.652v-88.695l13.099-19.652
			h195.669l13.099,19.652V441.148z"/>
	</g>
</g>
</svg>